<mxfile host="app.diagrams.net" agent="Mozilla/5.0 (Windows NT 10.0; Win64; x64) AppleWebKit/537.36 (KHTML, like Gecko) Chrome/141.0.0.0 Safari/537.36" version="28.2.7">
  <diagram name="PÃ¡gina-1" id="0d2zz18TA6_cKtrfR7pt">
    <mxGraphModel grid="1" page="1" gridSize="10" guides="1" tooltips="1" connect="1" arrows="1" fold="1" pageScale="1" pageWidth="827" pageHeight="1169" math="0" shadow="0">
      <root>
        <mxCell id="0" />
        <mxCell id="1" parent="0" />
        <mxCell id="2" value="Competicao" style="swimlane;fontStyle=1;align=center;verticalAlign=top;childLayout=stackLayout;horizontal=1;startSize=33.142857142857146;horizontalStack=0;resizeParent=1;resizeParentMax=0;resizeLast=0;collapsible=0;marginBottom=0;" vertex="1" parent="1">
          <mxGeometry x="265" y="8" width="206" height="239.14285714285714" as="geometry" />
        </mxCell>
        <mxCell id="3" value="-int id" style="text;strokeColor=none;fillColor=none;align=left;verticalAlign=top;spacingLeft=4;spacingRight=4;overflow=hidden;rotatable=0;points=[[0,0.5],[1,0.5]];portConstraint=eastwest;" vertex="1" parent="2">
          <mxGeometry y="33.142857142857146" width="206" height="33" as="geometry" />
        </mxCell>
        <mxCell id="4" value="-String modalidade" style="text;strokeColor=none;fillColor=none;align=left;verticalAlign=top;spacingLeft=4;spacingRight=4;overflow=hidden;rotatable=0;points=[[0,0.5],[1,0.5]];portConstraint=eastwest;" vertex="1" parent="2">
          <mxGeometry y="66.14285714285714" width="206" height="33" as="geometry" />
        </mxCell>
        <mxCell id="5" value="-Date data" style="text;strokeColor=none;fillColor=none;align=left;verticalAlign=top;spacingLeft=4;spacingRight=4;overflow=hidden;rotatable=0;points=[[0,0.5],[1,0.5]];portConstraint=eastwest;" vertex="1" parent="2">
          <mxGeometry y="99.14285714285714" width="206" height="33" as="geometry" />
        </mxCell>
        <mxCell id="6" value="-Time horario" style="text;strokeColor=none;fillColor=none;align=left;verticalAlign=top;spacingLeft=4;spacingRight=4;overflow=hidden;rotatable=0;points=[[0,0.5],[1,0.5]];portConstraint=eastwest;" vertex="1" parent="2">
          <mxGeometry y="132.14285714285714" width="206" height="33" as="geometry" />
        </mxCell>
        <mxCell id="7" style="line;strokeWidth=1;fillColor=none;align=left;verticalAlign=middle;spacingTop=-1;spacingLeft=3;spacingRight=3;rotatable=0;labelPosition=right;points=[];portConstraint=eastwest;strokeColor=inherit;" vertex="1" parent="2">
          <mxGeometry y="165.14285714285714" width="206" height="8" as="geometry" />
        </mxCell>
        <mxCell id="8" value="+cadastrar()" style="text;strokeColor=none;fillColor=none;align=left;verticalAlign=top;spacingLeft=4;spacingRight=4;overflow=hidden;rotatable=0;points=[[0,0.5],[1,0.5]];portConstraint=eastwest;" vertex="1" parent="2">
          <mxGeometry y="173.14285714285714" width="206" height="33" as="geometry" />
        </mxCell>
        <mxCell id="9" value="+atualizar()" style="text;strokeColor=none;fillColor=none;align=left;verticalAlign=top;spacingLeft=4;spacingRight=4;overflow=hidden;rotatable=0;points=[[0,0.5],[1,0.5]];portConstraint=eastwest;" vertex="1" parent="2">
          <mxGeometry y="206.14285714285714" width="206" height="33" as="geometry" />
        </mxCell>
        <mxCell id="10" value="Atleta" style="swimlane;fontStyle=1;align=center;verticalAlign=top;childLayout=stackLayout;horizontal=1;startSize=40;horizontalStack=0;resizeParent=1;resizeParentMax=0;resizeLast=0;collapsible=0;marginBottom=0;" vertex="1" parent="1">
          <mxGeometry x="303" y="609" width="311" height="168" as="geometry" />
        </mxCell>
        <mxCell id="11" value="-int id" style="text;strokeColor=none;fillColor=none;align=left;verticalAlign=top;spacingLeft=4;spacingRight=4;overflow=hidden;rotatable=0;points=[[0,0.5],[1,0.5]];portConstraint=eastwest;" vertex="1" parent="10">
          <mxGeometry y="40" width="311" height="40" as="geometry" />
        </mxCell>
        <mxCell id="12" value="-String nome" style="text;strokeColor=none;fillColor=none;align=left;verticalAlign=top;spacingLeft=4;spacingRight=4;overflow=hidden;rotatable=0;points=[[0,0.5],[1,0.5]];portConstraint=eastwest;" vertex="1" parent="10">
          <mxGeometry y="80" width="311" height="40" as="geometry" />
        </mxCell>
        <mxCell id="13" style="line;strokeWidth=1;fillColor=none;align=left;verticalAlign=middle;spacingTop=-1;spacingLeft=3;spacingRight=3;rotatable=0;labelPosition=right;points=[];portConstraint=eastwest;strokeColor=inherit;" vertex="1" parent="10">
          <mxGeometry y="120" width="311" height="8" as="geometry" />
        </mxCell>
        <mxCell id="14" value="+inscrever(competicao: Competicao)" style="text;strokeColor=none;fillColor=none;align=left;verticalAlign=top;spacingLeft=4;spacingRight=4;overflow=hidden;rotatable=0;points=[[0,0.5],[1,0.5]];portConstraint=eastwest;" vertex="1" parent="10">
          <mxGeometry y="128" width="311" height="40" as="geometry" />
        </mxCell>
        <mxCell id="15" value="Local" style="swimlane;fontStyle=1;align=center;verticalAlign=top;childLayout=stackLayout;horizontal=1;startSize=36.8;horizontalStack=0;resizeParent=1;resizeParentMax=0;resizeLast=0;collapsible=0;marginBottom=0;" vertex="1" parent="1">
          <mxGeometry x="8" y="332" width="287" height="192.8" as="geometry" />
        </mxCell>
        <mxCell id="16" value="-int id" style="text;strokeColor=none;fillColor=none;align=left;verticalAlign=top;spacingLeft=4;spacingRight=4;overflow=hidden;rotatable=0;points=[[0,0.5],[1,0.5]];portConstraint=eastwest;" vertex="1" parent="15">
          <mxGeometry y="36.8" width="287" height="37" as="geometry" />
        </mxCell>
        <mxCell id="17" value="-String nome" style="text;strokeColor=none;fillColor=none;align=left;verticalAlign=top;spacingLeft=4;spacingRight=4;overflow=hidden;rotatable=0;points=[[0,0.5],[1,0.5]];portConstraint=eastwest;" vertex="1" parent="15">
          <mxGeometry y="73.8" width="287" height="37" as="geometry" />
        </mxCell>
        <mxCell id="18" value="-int capacidade" style="text;strokeColor=none;fillColor=none;align=left;verticalAlign=top;spacingLeft=4;spacingRight=4;overflow=hidden;rotatable=0;points=[[0,0.5],[1,0.5]];portConstraint=eastwest;" vertex="1" parent="15">
          <mxGeometry y="110.8" width="287" height="37" as="geometry" />
        </mxCell>
        <mxCell id="19" style="line;strokeWidth=1;fillColor=none;align=left;verticalAlign=middle;spacingTop=-1;spacingLeft=3;spacingRight=3;rotatable=0;labelPosition=right;points=[];portConstraint=eastwest;strokeColor=inherit;" vertex="1" parent="15">
          <mxGeometry y="147.8" width="287" height="8" as="geometry" />
        </mxCell>
        <mxCell id="20" value="+alocar(competicao: Competicao)" style="text;strokeColor=none;fillColor=none;align=left;verticalAlign=top;spacingLeft=4;spacingRight=4;overflow=hidden;rotatable=0;points=[[0,0.5],[1,0.5]];portConstraint=eastwest;" vertex="1" parent="15">
          <mxGeometry y="155.8" width="287" height="37" as="geometry" />
        </mxCell>
        <mxCell id="21" value="Resultado" style="swimlane;fontStyle=1;align=center;verticalAlign=top;childLayout=stackLayout;horizontal=1;startSize=34.666666666666664;horizontalStack=0;resizeParent=1;resizeParentMax=0;resizeLast=0;collapsible=0;marginBottom=0;" vertex="1" parent="1">
          <mxGeometry x="441" y="320" width="216" height="217.66666666666666" as="geometry" />
        </mxCell>
        <mxCell id="22" value="-int id" style="text;strokeColor=none;fillColor=none;align=left;verticalAlign=top;spacingLeft=4;spacingRight=4;overflow=hidden;rotatable=0;points=[[0,0.5],[1,0.5]];portConstraint=eastwest;" vertex="1" parent="21">
          <mxGeometry y="34.666666666666664" width="216" height="35" as="geometry" />
        </mxCell>
        <mxCell id="23" value="-Atleta vencedor" style="text;strokeColor=none;fillColor=none;align=left;verticalAlign=top;spacingLeft=4;spacingRight=4;overflow=hidden;rotatable=0;points=[[0,0.5],[1,0.5]];portConstraint=eastwest;" vertex="1" parent="21">
          <mxGeometry y="69.66666666666666" width="216" height="35" as="geometry" />
        </mxCell>
        <mxCell id="24" value="-Atleta segundoLugar" style="text;strokeColor=none;fillColor=none;align=left;verticalAlign=top;spacingLeft=4;spacingRight=4;overflow=hidden;rotatable=0;points=[[0,0.5],[1,0.5]];portConstraint=eastwest;" vertex="1" parent="21">
          <mxGeometry y="104.66666666666666" width="216" height="35" as="geometry" />
        </mxCell>
        <mxCell id="25" value="-Atleta terceiroLugar" style="text;strokeColor=none;fillColor=none;align=left;verticalAlign=top;spacingLeft=4;spacingRight=4;overflow=hidden;rotatable=0;points=[[0,0.5],[1,0.5]];portConstraint=eastwest;" vertex="1" parent="21">
          <mxGeometry y="139.66666666666666" width="216" height="35" as="geometry" />
        </mxCell>
        <mxCell id="26" style="line;strokeWidth=1;fillColor=none;align=left;verticalAlign=middle;spacingTop=-1;spacingLeft=3;spacingRight=3;rotatable=0;labelPosition=right;points=[];portConstraint=eastwest;strokeColor=inherit;" vertex="1" parent="21">
          <mxGeometry y="174.66666666666666" width="216" height="8" as="geometry" />
        </mxCell>
        <mxCell id="27" value="+registrar()" style="text;strokeColor=none;fillColor=none;align=left;verticalAlign=top;spacingLeft=4;spacingRight=4;overflow=hidden;rotatable=0;points=[[0,0.5],[1,0.5]];portConstraint=eastwest;" vertex="1" parent="21">
          <mxGeometry y="182.66666666666666" width="216" height="35" as="geometry" />
        </mxCell>
        <mxCell id="28" value="Pais" style="swimlane;fontStyle=1;align=center;verticalAlign=top;childLayout=stackLayout;horizontal=1;startSize=34.666666666666664;horizontalStack=0;resizeParent=1;resizeParentMax=0;resizeLast=0;collapsible=0;marginBottom=0;" vertex="1" parent="1">
          <mxGeometry x="365" y="849" width="188" height="217.66666666666666" as="geometry" />
        </mxCell>
        <mxCell id="29" value="-String nome" style="text;strokeColor=none;fillColor=none;align=left;verticalAlign=top;spacingLeft=4;spacingRight=4;overflow=hidden;rotatable=0;points=[[0,0.5],[1,0.5]];portConstraint=eastwest;" vertex="1" parent="28">
          <mxGeometry y="34.666666666666664" width="188" height="35" as="geometry" />
        </mxCell>
        <mxCell id="30" value="-int medalhasOuro" style="text;strokeColor=none;fillColor=none;align=left;verticalAlign=top;spacingLeft=4;spacingRight=4;overflow=hidden;rotatable=0;points=[[0,0.5],[1,0.5]];portConstraint=eastwest;" vertex="1" parent="28">
          <mxGeometry y="69.66666666666666" width="188" height="35" as="geometry" />
        </mxCell>
        <mxCell id="31" value="-int medalhasPrata" style="text;strokeColor=none;fillColor=none;align=left;verticalAlign=top;spacingLeft=4;spacingRight=4;overflow=hidden;rotatable=0;points=[[0,0.5],[1,0.5]];portConstraint=eastwest;" vertex="1" parent="28">
          <mxGeometry y="104.66666666666666" width="188" height="35" as="geometry" />
        </mxCell>
        <mxCell id="32" value="-int medalhasBronze" style="text;strokeColor=none;fillColor=none;align=left;verticalAlign=top;spacingLeft=4;spacingRight=4;overflow=hidden;rotatable=0;points=[[0,0.5],[1,0.5]];portConstraint=eastwest;" vertex="1" parent="28">
          <mxGeometry y="139.66666666666666" width="188" height="35" as="geometry" />
        </mxCell>
        <mxCell id="33" style="line;strokeWidth=1;fillColor=none;align=left;verticalAlign=middle;spacingTop=-1;spacingLeft=3;spacingRight=3;rotatable=0;labelPosition=right;points=[];portConstraint=eastwest;strokeColor=inherit;" vertex="1" parent="28">
          <mxGeometry y="174.66666666666666" width="188" height="8" as="geometry" />
        </mxCell>
        <mxCell id="34" value="+atualizarMedalhas()" style="text;strokeColor=none;fillColor=none;align=left;verticalAlign=top;spacingLeft=4;spacingRight=4;overflow=hidden;rotatable=0;points=[[0,0.5],[1,0.5]];portConstraint=eastwest;" vertex="1" parent="28">
          <mxGeometry y="182.66666666666666" width="188" height="35" as="geometry" />
        </mxCell>
        <mxCell id="35" value="" style="curved=1;startArrow=none;endArrow=none;exitX=0.5;exitY=1;entryX=0.3;entryY=0;" edge="1" parent="1" source="2" target="10">
          <mxGeometry relative="1" as="geometry">
            <Array as="points">
              <mxPoint x="368" y="573" />
            </Array>
          </mxGeometry>
        </mxCell>
        <mxCell id="38" value="" style="curved=1;startArrow=none;endArrow=none;exitX=0;exitY=0.81;entryX=0.5;entryY=0;" edge="1" parent="1" source="2" target="15">
          <mxGeometry relative="1" as="geometry">
            <Array as="points">
              <mxPoint x="151" y="284" />
            </Array>
          </mxGeometry>
        </mxCell>
        <mxCell id="41" value="" style="curved=1;startArrow=none;endArrow=none;exitX=1;exitY=0.87;entryX=0.5;entryY=0;" edge="1" parent="1" source="2" target="21">
          <mxGeometry relative="1" as="geometry">
            <Array as="points">
              <mxPoint x="549" y="284" />
            </Array>
          </mxGeometry>
        </mxCell>
        <mxCell id="42" value="1" style="edgeLabel;resizable=0;labelBackgroundColor=none;fontSize=16;align=right;verticalAlign=top;" vertex="1" parent="41">
          <mxGeometry x="-1" relative="1" as="geometry">
            <mxPoint x="19" y="-26" as="offset" />
          </mxGeometry>
        </mxCell>
        <mxCell id="44" value="" style="curved=1;startArrow=none;endArrow=none;exitX=0.5;exitY=1;entryX=0.5;entryY=0;" edge="1" parent="1" source="10" target="28">
          <mxGeometry x="-0.0097" relative="1" as="geometry">
            <Array as="points" />
            <mxPoint as="offset" />
          </mxGeometry>
        </mxCell>
        <mxCell id="47" value="" style="curved=1;startArrow=diamondThin;startSize=14;startFill=1;endArrow=none;exitX=0.5;exitY=1;entryX=0.7;entryY=0;" edge="1" parent="1" source="21" target="10">
          <mxGeometry x="0.0083" relative="1" as="geometry">
            <Array as="points">
              <mxPoint x="549" y="573" />
            </Array>
            <mxPoint as="offset" />
          </mxGeometry>
        </mxCell>
        <mxCell id="56HfyQXQzzqufC7JFuM_-49" value="1" style="edgeLabel;resizable=0;labelBackgroundColor=none;fontSize=16;align=right;verticalAlign=top;" vertex="1" parent="1">
          <mxGeometry x="570" y="290" as="geometry" />
        </mxCell>
        <mxCell id="56HfyQXQzzqufC7JFuM_-52" value="1" style="edgeLabel;resizable=0;labelBackgroundColor=none;fontSize=16;align=right;verticalAlign=top;" vertex="1" parent="1">
          <mxGeometry x="260" y="170" as="geometry" />
        </mxCell>
        <mxCell id="56HfyQXQzzqufC7JFuM_-54" value="1" style="edgeLabel;resizable=0;labelBackgroundColor=none;fontSize=16;align=right;verticalAlign=top;" vertex="1" parent="1">
          <mxGeometry x="151.5" y="300" as="geometry" />
        </mxCell>
        <mxCell id="56HfyQXQzzqufC7JFuM_-57" value="N" style="edgeLabel;resizable=0;labelBackgroundColor=none;fontSize=16;align=right;verticalAlign=top;" vertex="1" parent="1">
          <mxGeometry x="360" y="247.14" as="geometry" />
        </mxCell>
        <mxCell id="56HfyQXQzzqufC7JFuM_-58" value="N" style="edgeLabel;resizable=0;labelBackgroundColor=none;fontSize=16;align=right;verticalAlign=top;" vertex="1" parent="1">
          <mxGeometry x="380" y="570" as="geometry" />
        </mxCell>
        <mxCell id="56HfyQXQzzqufC7JFuM_-69" value="1" style="edgeLabel;resizable=0;labelBackgroundColor=none;fontSize=16;align=right;verticalAlign=top;" vertex="1" parent="1">
          <mxGeometry x="480" y="820" as="geometry" />
        </mxCell>
        <mxCell id="56HfyQXQzzqufC7JFuM_-74" value="N" style="edgeLabel;resizable=0;labelBackgroundColor=none;fontSize=16;align=right;verticalAlign=top;" vertex="1" parent="1">
          <mxGeometry x="480" y="770" as="geometry" />
        </mxCell>
        <mxCell id="56HfyQXQzzqufC7JFuM_-79" value="N" style="edgeLabel;resizable=0;labelBackgroundColor=none;fontSize=16;align=right;verticalAlign=top;" vertex="1" parent="1">
          <mxGeometry x="570" y="537.67" as="geometry" />
        </mxCell>
        <mxCell id="56HfyQXQzzqufC7JFuM_-81" value="3" style="edgeLabel;resizable=0;labelBackgroundColor=none;fontSize=16;align=right;verticalAlign=top;" vertex="1" parent="1">
          <mxGeometry x="560" y="580" as="geometry" />
        </mxCell>
      </root>
    </mxGraphModel>
  </diagram>
</mxfile>
